<svg width="0" height="0">
    <symbol id="add" viewBox="0 0 27 27" fill="none" xmlns="http://www.w3.org/2000/svg">
        <line x1="13.3252" y1="1.5" x2="13.3252" y2="25.5" stroke="currentColor" stroke-width="3" stroke-linecap="round"/>
        <line x1="25.5" y1="14.325" x2="1.5" y2="14.3249" stroke="currentColor" stroke-width="3" stroke-linecap="round"/>
    </symbol>
    <symbol id="select" viewBox="0 0 32 32" fill="none" xmlns="http://www.w3.org/2000/svg">
        <path d="M8 26H4C3.46973 25.9995 2.96133 25.7886 2.58637 25.4136C2.21141 25.0387 2.00053 24.5303 2 24V20H4V24H8V26ZM2 12H4V16H2V12ZM26 8H24V4H20V2H24C24.5303 2.00053 25.0387 2.21141 25.4136 2.58637C25.7886 2.96133 25.9995 3.46973 26 4V8ZM12 2H16V4H12V2ZM4 8H2V4C2.00053 3.46973 2.21141 2.96133 2.58637 2.58637C2.96133 2.21141 3.46973 2.00053 4 2H8V4H4V8ZM27 32C26.8687 32.0001 26.7386 31.9743 26.6173 31.924C26.4959 31.8738 26.3857 31.8 26.293 31.707L20.155 25.569L16.832 30.555C16.7267 30.7129 16.5786 30.8376 16.4051 30.9145C16.2315 30.9914 16.0397 31.0173 15.8519 30.9892C15.6642 30.9611 15.4883 30.8801 15.3449 30.7558C15.2015 30.6314 15.0964 30.4688 15.042 30.287L9.042 10.287C8.99017 10.1141 8.98612 9.93035 9.03028 9.75531C9.07443 9.58027 9.16514 9.42044 9.29279 9.29279C9.42044 9.16514 9.58027 9.07443 9.75531 9.03028C9.93035 8.98612 10.1141 8.99017 10.287 9.042L30.287 15.042C30.4688 15.0964 30.6314 15.2015 30.7558 15.3449C30.8801 15.4883 30.9611 15.6642 30.9892 15.8519C31.0173 16.0397 30.9914 16.2315 30.9145 16.4051C30.8376 16.5786 30.7129 16.7267 30.555 16.832L25.569 20.155L31.707 26.293C31.8945 26.4805 31.9998 26.7348 31.9998 27C31.9998 27.2652 31.8945 27.5195 31.707 27.707L27.707 31.707C27.6143 31.8 27.5041 31.8738 27.3827 31.924C27.2614 31.9743 27.1313 32.0001 27 32ZM27 29.586L29.586 27L22.431 19.845L27.677 16.347L11.492 11.492L16.347 27.677L19.845 22.431L27 29.586Z" fill="currentColor"/>
    </symbol>
    <symbol id="deleteNote" viewBox="0 0 576 512" fill="none" xmlns="http://www.w3.org/2000/svg">
        <path d="M576 384C576 419.3 547.3 448 512 448H205.3C188.3 448 172 441.3 160 429.3L9.372 278.6C3.371 272.6 0 264.5 0 256C0 247.5 3.372 239.4 9.372 233.4L160 82.75C172 70.74 188.3 64 205.3 64H512C547.3 64 576 92.65 576 128V384ZM271 208.1L318.1 256L271 303C261.7 312.4 261.7 327.6 271 336.1C280.4 346.3 295.6 346.3 304.1 336.1L352 289.9L399 336.1C408.4 346.3 423.6 346.3 432.1 336.1C442.3 327.6 442.3 312.4 432.1 303L385.9 256L432.1 208.1C442.3 199.6 442.3 184.4 432.1 175C423.6 165.7 408.4 165.7 399 175L352 222.1L304.1 175C295.6 165.7 280.4 165.7 271 175C261.7 184.4 261.7 199.6 271 208.1Z" fill="currentColor"/>
    </symbol>
    <symbol id="ollist" viewBox="0 0 36 36" fill="none" xmlns="http://www.w3.org/2000/svg">
        <g clip-path="url(#clip0_129_85)">
            <path d="M7.28835 4.18182V18H5.61506V5.93608H5.53409L2.16051 8.17614V6.47585L5.61506 4.18182H7.28835Z" fill="currentColor"/>
            <path d="M12.4304 26V24.7855L16.9915 19.7926C17.5268 19.2079 17.9676 18.6996 18.3139 18.2678C18.6603 17.8314 18.9167 17.4221 19.0831 17.0398C19.254 16.6529 19.3395 16.2481 19.3395 15.8253C19.3395 15.3395 19.2225 14.9189 18.9886 14.5636C18.7592 14.2082 18.4444 13.9338 18.044 13.7404C17.6437 13.547 17.1939 13.4503 16.6946 13.4503C16.1638 13.4503 15.7005 13.5605 15.3047 13.7809C14.9134 13.9968 14.6097 14.3004 14.3938 14.6918C14.1824 15.0831 14.0767 15.5419 14.0767 16.0682H12.4844C12.4844 15.2585 12.671 14.5478 13.0444 13.9361C13.4177 13.3243 13.926 12.8475 14.5692 12.5057C15.217 12.1638 15.9434 11.9929 16.7486 11.9929C17.5582 11.9929 18.2757 12.1638 18.9009 12.5057C19.5262 12.8475 20.0165 13.3086 20.3718 13.8888C20.7272 14.4691 20.9048 15.1146 20.9048 15.8253C20.9048 16.3336 20.8126 16.8306 20.6282 17.3164C20.4483 17.7977 20.1334 18.3352 19.6836 18.929C19.2383 19.5182 18.6198 20.2379 17.8281 21.0881L14.7244 24.4077V24.5156H21.1477V26H12.4304Z" fill="currentColor"/>
            <path d="M29.0994 34.1889C28.2088 34.1889 27.4149 34.036 26.7177 33.7301C26.025 33.4242 25.474 32.9992 25.0646 32.4549C24.6598 31.9061 24.4394 31.2696 24.4034 30.5455H26.1037C26.1397 30.9908 26.2926 31.3754 26.5625 31.6992C26.8324 32.0186 27.1855 32.266 27.6218 32.4414C28.0581 32.6168 28.5417 32.7045 29.0724 32.7045C29.6662 32.7045 30.1925 32.6011 30.6513 32.3942C31.1101 32.1873 31.4699 31.8994 31.7308 31.5305C31.9917 31.1617 32.1222 30.7344 32.1222 30.2486C32.1222 29.7403 31.9962 29.2927 31.7443 28.9059C31.4924 28.5146 31.1236 28.2087 30.6378 27.9883C30.152 27.7679 29.5582 27.6577 28.8565 27.6577H27.75V26.1733H28.8565C29.4053 26.1733 29.8866 26.0743 30.3004 25.8764C30.7188 25.6785 31.0449 25.3996 31.2788 25.0398C31.5172 24.6799 31.6364 24.2571 31.6364 23.7713C31.6364 23.3035 31.5329 22.8964 31.326 22.5501C31.1191 22.2037 30.8267 21.9338 30.4489 21.7404C30.0755 21.547 29.6347 21.4503 29.1264 21.4503C28.6496 21.4503 28.1998 21.538 27.777 21.7134C27.3587 21.8844 27.0168 22.134 26.7514 22.4624C26.486 22.7862 26.3421 23.1776 26.3196 23.6364H24.7003C24.7273 22.9122 24.9454 22.2779 25.3548 21.7337C25.7641 21.1849 26.2994 20.7576 26.9606 20.4517C27.6263 20.1458 28.3572 19.9929 29.1534 19.9929C30.008 19.9929 30.7412 20.1661 31.353 20.5124C31.9647 20.8543 32.4348 21.3063 32.7631 21.8686C33.0915 22.4309 33.2557 23.0381 33.2557 23.6903C33.2557 24.4685 33.051 25.132 32.6417 25.6808C32.2369 26.2295 31.6858 26.6096 30.9886 26.821V26.929C31.8613 27.0729 32.5427 27.444 33.033 28.0423C33.5233 28.636 33.7685 29.3714 33.7685 30.2486C33.7685 30.9998 33.5638 31.6745 33.1545 32.2727C32.7496 32.8665 32.1964 33.3343 31.4947 33.6761C30.793 34.018 29.9946 34.1889 29.0994 34.1889Z" fill="currentColor"/>
            <line x1="2.5" y1="33.5" x2="13.5" y2="33.5" stroke="currentColor" stroke-linecap="round"/>
            <line x1="2.5" y1="31.5" x2="10.5" y2="31.5" stroke="currentColor" stroke-linecap="round"/>
            <line x1="2.5" y1="29.5" x2="7.5" y2="29.5" stroke="currentColor" stroke-linecap="round"/>
            <line x1="33.5" y1="2.5" x2="22.5" y2="2.5" stroke="currentColor" stroke-linecap="round"/>
            <line x1="33.5" y1="4.5" x2="25.5" y2="4.5" stroke="currentColor" stroke-linecap="round"/>
            <line x1="33.5" y1="6.5" x2="28.5" y2="6.5" stroke="currentColor" stroke-linecap="round"/>
        </g>
        <defs>
            <clipPath id="clip0_129_85">
                <rect width="36" height="36" fill="white"/>
            </clipPath>
        </defs>
    </symbol>
    <symbol id="ullist" viewBox="0 0 36 36" fill="none" xmlns="http://www.w3.org/2000/svg">
        <path d="M2 8H4V10H2V8Z" fill="currentColor"/>
        <path d="M7 10H31C31.2652 10 31.5196 9.89464 31.7071 9.70711C31.8946 9.51957 32 9.26522 32 9C32 8.73478 31.8946 8.48043 31.7071 8.29289C31.5196 8.10536 31.2652 8 31 8H7C6.73478 8 6.48043 8.10536 6.29289 8.29289C6.10536 8.48043 6 8.73478 6 9C6 9.26522 6.10536 9.51957 6.29289 9.70711C6.48043 9.89464 6.73478 10 7 10Z" fill="currentColor"/>
        <path d="M2 14H4V16H2V14Z" fill="currentColor"/>
        <path d="M31 14H7C6.73478 14 6.48043 14.1054 6.29289 14.2929C6.10536 14.4804 6 14.7348 6 15C6 15.2652 6.10536 15.5196 6.29289 15.7071C6.48043 15.8946 6.73478 16 7 16H31C31.2652 16 31.5196 15.8946 31.7071 15.7071C31.8946 15.5196 32 15.2652 32 15C32 14.7348 31.8946 14.4804 31.7071 14.2929C31.5196 14.1054 31.2652 14 31 14Z" fill="currentColor"/>
        <path d="M2 20H4V22H2V20Z" fill="currentColor"/>
        <path d="M31 20H7C6.73478 20 6.48043 20.1054 6.29289 20.2929C6.10536 20.4804 6 20.7348 6 21C6 21.2652 6.10536 21.5196 6.29289 21.7071C6.48043 21.8946 6.73478 22 7 22H31C31.2652 22 31.5196 21.8946 31.7071 21.7071C31.8946 21.5196 32 21.2652 32 21C32 20.7348 31.8946 20.4804 31.7071 20.2929C31.5196 20.1054 31.2652 20 31 20Z" fill="currentColor"/>
        <path d="M2 26H4V28H2V26Z" fill="currentColor"/>
        <path d="M31 26H7C6.73478 26 6.48043 26.1054 6.29289 26.2929C6.10536 26.4804 6 26.7348 6 27C6 27.2652 6.10536 27.5196 6.29289 27.7071C6.48043 27.8946 6.73478 28 7 28H31C31.2652 28 31.5196 27.8946 31.7071 27.7071C31.8946 27.5196 32 27.2652 32 27C32 26.7348 31.8946 26.4804 31.7071 26.2929C31.5196 26.1054 31.2652 26 31 26Z" fill="currentColor"/>
    </symbol>
    <symbol id="success" viewBox="0 0 58 60" fill="none" xmlns="http://www.w3.org/2000/svg">
        <path d="M13.8958 44.3999C12.1332 44.3999 10.4429 43.7045 9.19652 42.4668C7.95018 41.2291 7.25 39.5503 7.25 37.7999V14.9999C7.25 13.2495 7.95018 11.5707 9.19652 10.333C10.4429 9.09526 12.1332 8.3999 13.8958 8.3999H30.7255C31.7573 8.39965 32.7791 8.6013 33.7324 8.99333C34.6857 9.38537 35.5518 9.96011 36.2814 10.6847L41.1993 15.5687C42.6735 17.0327 43.5 19.0175 43.5 21.0863V37.7999C43.5 39.5503 42.7998 41.2291 41.5535 42.4668C40.3071 43.7045 38.6168 44.3999 36.8542 44.3999H13.8958ZM10.875 14.9999V37.7999C10.875 39.4559 12.2283 40.7999 13.8958 40.7999H14.5V32.9999C14.5 31.5677 15.0729 30.1942 16.0926 29.1815C17.1123 28.1688 18.4954 27.5999 19.9375 27.5999H30.8125C32.2546 27.5999 33.6377 28.1688 34.6574 29.1815C35.6771 30.1942 36.25 31.5677 36.25 32.9999V40.7999H36.8542C38.5217 40.7999 39.875 39.4559 39.875 37.7999V21.0863C39.875 19.9703 39.4303 18.9023 38.6353 18.1151L33.8333 13.3463V16.1999C33.8333 17.6321 33.2605 19.0056 32.2407 20.0183C31.221 21.031 29.8379 21.5999 28.3958 21.5999H22.3542C20.9121 21.5999 19.529 21.031 18.5093 20.0183C17.4895 19.0056 16.9167 17.6321 16.9167 16.1999V11.9999H13.8958C12.2283 11.9999 10.875 13.3439 10.875 14.9999ZM32.625 40.7999V32.9999C32.625 32.5225 32.434 32.0647 32.0941 31.7271C31.7542 31.3895 31.2932 31.1999 30.8125 31.1999H19.9375C19.4568 31.1999 18.9958 31.3895 18.6559 31.7271C18.316 32.0647 18.125 32.5225 18.125 32.9999V40.7999H32.625ZM20.5417 16.1999C20.5417 17.1935 21.3537 17.9999 22.3542 17.9999H28.3958C28.8765 17.9999 29.3376 17.8103 29.6775 17.4727C30.0174 17.1351 30.2083 16.6773 30.2083 16.1999V11.9999H20.5417V16.1999ZM25.9792 51.5999C24.4099 51.6017 22.8569 51.2831 21.4168 50.6638C19.9767 50.0445 18.6802 49.1378 17.6078 47.9999H39.2708C41.3539 47.9999 43.3516 47.1781 44.8246 45.7153C46.2975 44.2526 47.125 42.2686 47.125 40.1999V21.4559L48.4493 22.7711C49.9235 24.2327 50.75 26.2175 50.75 28.2863V40.1999C50.75 43.2234 49.5406 46.123 47.3878 48.2609C45.2351 50.3988 42.3153 51.5999 39.2708 51.5999H25.9792Z" fill="currentColor"/>
    </symbol>
</svg>
