<svg width="0" height="0">
    <symbol id="add" viewBox="0 0 27 27" fill="none" xmlns="http://www.w3.org/2000/svg">
        <line x1="13.3252" y1="1.5" x2="13.3252" y2="25.5" stroke="currentColor" stroke-width="3" stroke-linecap="round"/>
        <line x1="25.5" y1="14.325" x2="1.5" y2="14.3249" stroke="currentColor" stroke-width="3" stroke-linecap="round"/>
    </symbol>
    <symbol id="select" viewBox="0 0 32 32" fill="none" xmlns="http://www.w3.org/2000/svg">
        <path d="M8 26H4C3.46973 25.9995 2.96133 25.7886 2.58637 25.4136C2.21141 25.0387 2.00053 24.5303 2 24V20H4V24H8V26ZM2 12H4V16H2V12ZM26 8H24V4H20V2H24C24.5303 2.00053 25.0387 2.21141 25.4136 2.58637C25.7886 2.96133 25.9995 3.46973 26 4V8ZM12 2H16V4H12V2ZM4 8H2V4C2.00053 3.46973 2.21141 2.96133 2.58637 2.58637C2.96133 2.21141 3.46973 2.00053 4 2H8V4H4V8ZM27 32C26.8687 32.0001 26.7386 31.9743 26.6173 31.924C26.4959 31.8738 26.3857 31.8 26.293 31.707L20.155 25.569L16.832 30.555C16.7267 30.7129 16.5786 30.8376 16.4051 30.9145C16.2315 30.9914 16.0397 31.0173 15.8519 30.9892C15.6642 30.9611 15.4883 30.8801 15.3449 30.7558C15.2015 30.6314 15.0964 30.4688 15.042 30.287L9.042 10.287C8.99017 10.1141 8.98612 9.93035 9.03028 9.75531C9.07443 9.58027 9.16514 9.42044 9.29279 9.29279C9.42044 9.16514 9.58027 9.07443 9.75531 9.03028C9.93035 8.98612 10.1141 8.99017 10.287 9.042L30.287 15.042C30.4688 15.0964 30.6314 15.2015 30.7558 15.3449C30.8801 15.4883 30.9611 15.6642 30.9892 15.8519C31.0173 16.0397 30.9914 16.2315 30.9145 16.4051C30.8376 16.5786 30.7129 16.7267 30.555 16.832L25.569 20.155L31.707 26.293C31.8945 26.4805 31.9998 26.7348 31.9998 27C31.9998 27.2652 31.8945 27.5195 31.707 27.707L27.707 31.707C27.6143 31.8 27.5041 31.8738 27.3827 31.924C27.2614 31.9743 27.1313 32.0001 27 32ZM27 29.586L29.586 27L22.431 19.845L27.677 16.347L11.492 11.492L16.347 27.677L19.845 22.431L27 29.586Z" fill="currentColor"/>
    </symbol>
</svg>
